<svg viewBox="0 0 300 300" xmlns="http://www.w3.org/2000/svg" role="img"><path d="M100 0V300 M200 0V300 M0 100H300 M0 200H300" stroke="#e2e6ea" stroke-width="2"/><circle cx="50" cy="50" r="6" fill="#2f3a4a"/><circle cx="168" cy="50" r="6" fill="#2f3a4a"/><circle cx="132" cy="50" r="6" fill="#2f3a4a"/><circle cx="268" cy="50" r="6" fill="#2f3a4a"/><circle cx="241" cy="65.5884572681199" r="6" fill="#2f3a4a"/><circle cx="241" cy="34.411542731880104" r="6" fill="#2f3a4a"/><circle cx="68" cy="150" r="6" fill="#2f3a4a"/><circle cx="50" cy="168" r="6" fill="#2f3a4a"/><circle cx="32" cy="150" r="6" fill="#2f3a4a"/><circle cx="50" cy="132" r="6" fill="#2f3a4a"/><circle cx="168" cy="150" r="6" fill="#2f3a4a"/><circle cx="155.56230589874906" cy="167.11901729331277" r="6" fill="#2f3a4a"/><circle cx="135.43769410125094" cy="160.58013454126453" r="6" fill="#2f3a4a"/><circle cx="135.43769410125094" cy="139.41986545873547" r="6" fill="#2f3a4a"/><circle cx="155.56230589874906" cy="132.88098270668723" r="6" fill="#2f3a4a"/><circle cx="268" cy="150" r="6" fill="#2f3a4a"/><circle cx="259" cy="165.5884572681199" r="6" fill="#2f3a4a"/><circle cx="241" cy="165.5884572681199" r="6" fill="#2f3a4a"/><circle cx="232" cy="150" r="6" fill="#2f3a4a"/><circle cx="241" cy="134.4115427318801" r="6" fill="#2f3a4a"/><circle cx="259" cy="134.4115427318801" r="6" fill="#2f3a4a"/><circle cx="68" cy="250" r="6" fill="#2f3a4a"/><circle cx="61.222816433457204" cy="264.07296668442456" r="6" fill="#2f3a4a"/><circle cx="45.99462318878634" cy="267.54870241927284" r="6" fill="#2f3a4a"/><circle cx="33.782560377756454" cy="257.80990730411605" r="6" fill="#2f3a4a"/><circle cx="33.782560377756454" cy="242.19009269588395" r="6" fill="#2f3a4a"/><circle cx="45.994623188786335" cy="232.45129758072719" r="6" fill="#2f3a4a"/><circle cx="61.2228164334572" cy="235.92703331557547" r="6" fill="#2f3a4a"/><circle cx="168" cy="250" r="6" fill="#2f3a4a"/><circle cx="162.72792206135784" cy="262.72792206135784" r="6" fill="#2f3a4a"/><circle cx="150" cy="268" r="6" fill="#2f3a4a"/><circle cx="137.27207793864216" cy="262.72792206135784" r="6" fill="#2f3a4a"/><circle cx="132" cy="250" r="6" fill="#2f3a4a"/><circle cx="137.27207793864216" cy="237.27207793864216" r="6" fill="#2f3a4a"/><circle cx="150" cy="232" r="6" fill="#2f3a4a"/><circle cx="162.72792206135784" cy="237.27207793864216" r="6" fill="#2f3a4a"/><rect x="218" y="218" width="64" height="64" rx="6" fill="none" stroke="#9aa6b2" stroke-width="2" stroke-dasharray="6 5"/></svg>
