<svg viewBox="0 0 300 300" xmlns="http://www.w3.org/2000/svg" role="img"><path d="M100 0V300 M200 0V300 M0 100H300 M0 200H300" stroke="#e2e6ea" stroke-width="2"/><polygon points="50,41.45 58.55,58.55 41.45,58.55" fill="#2f3a4a"/><polygon points="150,38.980000000000004 161.02,61.019999999999996 138.98,61.019999999999996" fill="#2f3a4a"/><polygon points="250,36.510000000000005 263.49,63.489999999999995 236.51,63.489999999999995" fill="#2f3a4a"/><polygon points="50,134.04 65.96,165.96 34.04,165.96" fill="#2f3a4a"/><polygon points="150,131.57 168.43,168.43 131.57,168.43" fill="#2f3a4a"/><polygon points="250,129.1 270.9,170.9 229.1,170.9" fill="#2f3a4a"/><polygon points="50,226.63 73.37,273.37 26.63,273.37" fill="#2f3a4a"/><polygon points="150,224.16 175.84,275.84 124.16,275.84" fill="#2f3a4a"/><rect x="218" y="218" width="64" height="64" rx="6" fill="none" stroke="#9aa6b2" stroke-width="2" stroke-dasharray="6 5"/></svg>
