<svg viewBox="0 0 300 300" xmlns="http://www.w3.org/2000/svg" role="img"><path d="M100 0V300 M200 0V300 M0 100H300 M0 200H300" stroke="#e2e6ea" stroke-width="2"/><rect x="44" y="44" width="12" height="12" fill="#2f3a4a"/><rect x="162" y="44" width="12" height="12" fill="#2f3a4a"/><rect x="126" y="44" width="12" height="12" fill="#2f3a4a"/><rect x="262" y="44" width="12" height="12" fill="#2f3a4a"/><rect x="235" y="59.588457268119896" width="12" height="12" fill="#2f3a4a"/><rect x="235" y="28.411542731880104" width="12" height="12" fill="#2f3a4a"/><rect x="62" y="144" width="12" height="12" fill="#2f3a4a"/><rect x="44" y="162" width="12" height="12" fill="#2f3a4a"/><rect x="26" y="144" width="12" height="12" fill="#2f3a4a"/><rect x="44" y="126" width="12" height="12" fill="#2f3a4a"/><rect x="162" y="144" width="12" height="12" fill="#2f3a4a"/><rect x="149.56230589874906" y="161.11901729331277" width="12" height="12" fill="#2f3a4a"/><rect x="129.43769410125094" y="154.58013454126453" width="12" height="12" fill="#2f3a4a"/><rect x="129.43769410125094" y="133.41986545873547" width="12" height="12" fill="#2f3a4a"/><rect x="149.56230589874906" y="126.88098270668723" width="12" height="12" fill="#2f3a4a"/><rect x="262" y="144" width="12" height="12" fill="#2f3a4a"/><rect x="253" y="159.5884572681199" width="12" height="12" fill="#2f3a4a"/><rect x="235" y="159.5884572681199" width="12" height="12" fill="#2f3a4a"/><rect x="226" y="144" width="12" height="12" fill="#2f3a4a"/><rect x="235" y="128.4115427318801" width="12" height="12" fill="#2f3a4a"/><rect x="253" y="128.4115427318801" width="12" height="12" fill="#2f3a4a"/><rect x="62" y="244" width="12" height="12" fill="#2f3a4a"/><rect x="55.222816433457204" y="258.07296668442456" width="12" height="12" fill="#2f3a4a"/><rect x="39.99462318878634" y="261.54870241927284" width="12" height="12" fill="#2f3a4a"/><rect x="27.782560377756454" y="251.80990730411605" width="12" height="12" fill="#2f3a4a"/><rect x="27.782560377756454" y="236.19009269588395" width="12" height="12" fill="#2f3a4a"/><rect x="39.994623188786335" y="226.45129758072719" width="12" height="12" fill="#2f3a4a"/><rect x="55.2228164334572" y="229.92703331557547" width="12" height="12" fill="#2f3a4a"/><rect x="162" y="244" width="12" height="12" fill="#2f3a4a"/><rect x="156.72792206135784" y="256.72792206135784" width="12" height="12" fill="#2f3a4a"/><rect x="144" y="262" width="12" height="12" fill="#2f3a4a"/><rect x="131.27207793864216" y="256.72792206135784" width="12" height="12" fill="#2f3a4a"/><rect x="126" y="244" width="12" height="12" fill="#2f3a4a"/><rect x="131.27207793864216" y="231.27207793864216" width="12" height="12" fill="#2f3a4a"/><rect x="144" y="226" width="12" height="12" fill="#2f3a4a"/><rect x="156.72792206135784" y="231.27207793864216" width="12" height="12" fill="#2f3a4a"/><rect x="218" y="218" width="64" height="64" rx="6" fill="none" stroke="#9aa6b2" stroke-width="2" stroke-dasharray="6 5"/></svg>
