<svg viewBox="0 0 300 300" xmlns="http://www.w3.org/2000/svg" role="img"><path d="M100 0V300 M200 0V300 M0 100H300 M0 200H300" stroke="#e2e6ea" stroke-width="2"/><polygon points="50,40.5 59.5,59.5 40.5,59.5" fill="#2f3a4a"/><polygon points="150,38.125 161.875,61.875 138.125,61.875" fill="#2f3a4a"/><polygon points="250,35.75 264.25,64.25 235.75,64.25" fill="#2f3a4a"/><polygon points="50,133.375 66.625,166.625 33.375,166.625" fill="#2f3a4a"/><polygon points="150,131 169,169 131,169" fill="#2f3a4a"/><polygon points="250,128.625 271.375,171.375 228.625,171.375" fill="#2f3a4a"/><polygon points="50,226.25 73.75,273.75 26.25,273.75" fill="#2f3a4a"/><polygon points="150,223.875 176.125,276.125 123.875,276.125" fill="#2f3a4a"/><rect x="218" y="218" width="64" height="64" rx="6" fill="none" stroke="#9aa6b2" stroke-width="2" stroke-dasharray="6 5"/></svg>
