<svg viewBox="0 0 300 300" xmlns="http://www.w3.org/2000/svg" role="img"><path d="M100 0V300 M200 0V300 M0 100H300 M0 200H300" stroke="#e2e6ea" stroke-width="2"/><rect x="43" y="43" width="14" height="14" fill="none" stroke="#2f3a4a" stroke-width="4"/><rect x="143" y="43" width="14" height="14" fill="none" stroke="#2f3a4a" stroke-width="4"/><rect x="137.5" y="37.5" width="25" height="25" fill="none" stroke="#2f3a4a" stroke-width="4"/><rect x="243" y="43" width="14" height="14" fill="none" stroke="#2f3a4a" stroke-width="4"/><rect x="237.5" y="37.5" width="25" height="25" fill="none" stroke="#2f3a4a" stroke-width="4"/><rect x="232" y="32" width="36" height="36" fill="none" stroke="#2f3a4a" stroke-width="4"/><rect x="43" y="143" width="14" height="14" fill="none" stroke="#2f3a4a" stroke-width="4"/><rect x="37.5" y="137.5" width="25" height="25" fill="none" stroke="#2f3a4a" stroke-width="4"/><rect x="32" y="132" width="36" height="36" fill="none" stroke="#2f3a4a" stroke-width="4"/><rect x="26.5" y="126.5" width="47" height="47" fill="none" stroke="#2f3a4a" stroke-width="4"/><rect x="143" y="143" width="14" height="14" fill="none" stroke="#2f3a4a" stroke-width="4"/><rect x="137.5" y="137.5" width="25" height="25" fill="none" stroke="#2f3a4a" stroke-width="4"/><rect x="132" y="132" width="36" height="36" fill="none" stroke="#2f3a4a" stroke-width="4"/><rect x="126.5" y="126.5" width="47" height="47" fill="none" stroke="#2f3a4a" stroke-width="4"/><rect x="243" y="143" width="14" height="14" fill="none" stroke="#2f3a4a" stroke-width="4"/><rect x="237.5" y="137.5" width="25" height="25" fill="none" stroke="#2f3a4a" stroke-width="4"/><rect x="232" y="132" width="36" height="36" fill="none" stroke="#2f3a4a" stroke-width="4"/><rect x="226.5" y="126.5" width="47" height="47" fill="none" stroke="#2f3a4a" stroke-width="4"/><rect x="43" y="243" width="14" height="14" fill="none" stroke="#2f3a4a" stroke-width="4"/><rect x="37.5" y="237.5" width="25" height="25" fill="none" stroke="#2f3a4a" stroke-width="4"/><rect x="32" y="232" width="36" height="36" fill="none" stroke="#2f3a4a" stroke-width="4"/><rect x="26.5" y="226.5" width="47" height="47" fill="none" stroke="#2f3a4a" stroke-width="4"/><rect x="143" y="243" width="14" height="14" fill="none" stroke="#2f3a4a" stroke-width="4"/><rect x="137.5" y="237.5" width="25" height="25" fill="none" stroke="#2f3a4a" stroke-width="4"/><rect x="132" y="232" width="36" height="36" fill="none" stroke="#2f3a4a" stroke-width="4"/><rect x="126.5" y="226.5" width="47" height="47" fill="none" stroke="#2f3a4a" stroke-width="4"/><rect x="218" y="218" width="64" height="64" rx="6" fill="none" stroke="#9aa6b2" stroke-width="2" stroke-dasharray="6 5"/></svg>
