<svg viewBox="0 0 300 300" xmlns="http://www.w3.org/2000/svg" role="img"><path d="M100 0V300 M200 0V300 M0 100H300 M0 200H300" stroke="#e2e6ea" stroke-width="2"/><polygon points="50,38.3 61.7,50 50,61.7 38.3,50" fill="#2f3a4a"/><polygon points="150,34.92 165.08,50 150,65.08 134.92,50" fill="#2f3a4a"/><polygon points="250,31.54 268.46,50 250,68.46000000000001 231.54,50" fill="#2f3a4a"/><polygon points="50,128.16 71.84,150 50,171.84 28.159999999999997,150" fill="#2f3a4a"/><polygon points="150,124.78 175.22,150 150,175.22 124.78,150" fill="#2f3a4a"/><polygon points="250,121.4 278.6,150 250,178.6 221.4,150" fill="#2f3a4a"/><polygon points="50,218.01999999999998 81.98,250 50,281.98 18.019999999999996,250" fill="#2f3a4a"/><polygon points="150,214.64 185.36,250 150,285.36 114.64,250" fill="#2f3a4a"/><rect x="218" y="218" width="64" height="64" rx="6" fill="none" stroke="#9aa6b2" stroke-width="2" stroke-dasharray="6 5"/></svg>
