<svg viewBox="0 0 300 300" xmlns="http://www.w3.org/2000/svg" role="img"><path d="M100 0V300 M200 0V300 M0 100H300 M0 200H300" stroke="#26324d" stroke-width="2"/><polygon points="50,30 70,70 30,70" fill="#f4f7ff" transform="rotate(0 50 50)"/><polygon points="150,30 170,70 130,70" fill="#f4f7ff" transform="rotate(40 150 50)"/><polygon points="250,30 270,70 230,70" fill="#f4f7ff" transform="rotate(80 250 50)"/><polygon points="50,130 70,170 30,170" fill="#f4f7ff" transform="rotate(120 50 150)"/><polygon points="150,130 170,170 130,170" fill="#f4f7ff" transform="rotate(160 150 150)"/><polygon points="250,130 270,170 230,170" fill="#f4f7ff" transform="rotate(200 250 150)"/><polygon points="50,230 70,270 30,270" fill="#f4f7ff" transform="rotate(240 50 250)"/><polygon points="150,230 170,270 130,270" fill="#f4f7ff" transform="rotate(280 150 250)"/><rect x="218" y="218" width="64" height="64" rx="6" fill="none" stroke="#7889a3" stroke-width="2" stroke-dasharray="6 5"/></svg>
