<svg viewBox="0 0 300 300" xmlns="http://www.w3.org/2000/svg" role="img"><path d="M100 0V300 M200 0V300 M0 100H300 M0 200H300" stroke="#26324d" stroke-width="2"/><rect x="44" y="44" width="12" height="12" fill="none" stroke="#f4f7ff" stroke-width="4"/><rect x="144" y="44" width="12" height="12" fill="none" stroke="#f4f7ff" stroke-width="4"/><rect x="138.5" y="38.5" width="23" height="23" fill="none" stroke="#f4f7ff" stroke-width="4"/><rect x="244" y="44" width="12" height="12" fill="none" stroke="#f4f7ff" stroke-width="4"/><rect x="238.5" y="38.5" width="23" height="23" fill="none" stroke="#f4f7ff" stroke-width="4"/><rect x="233" y="33" width="34" height="34" fill="none" stroke="#f4f7ff" stroke-width="4"/><rect x="44" y="144" width="12" height="12" fill="none" stroke="#f4f7ff" stroke-width="4"/><rect x="38.5" y="138.5" width="23" height="23" fill="none" stroke="#f4f7ff" stroke-width="4"/><rect x="33" y="133" width="34" height="34" fill="none" stroke="#f4f7ff" stroke-width="4"/><rect x="27.5" y="127.5" width="45" height="45" fill="none" stroke="#f4f7ff" stroke-width="4"/><rect x="144" y="144" width="12" height="12" fill="none" stroke="#f4f7ff" stroke-width="4"/><rect x="138.5" y="138.5" width="23" height="23" fill="none" stroke="#f4f7ff" stroke-width="4"/><rect x="133" y="133" width="34" height="34" fill="none" stroke="#f4f7ff" stroke-width="4"/><rect x="127.5" y="127.5" width="45" height="45" fill="none" stroke="#f4f7ff" stroke-width="4"/><rect x="244" y="144" width="12" height="12" fill="none" stroke="#f4f7ff" stroke-width="4"/><rect x="238.5" y="138.5" width="23" height="23" fill="none" stroke="#f4f7ff" stroke-width="4"/><rect x="233" y="133" width="34" height="34" fill="none" stroke="#f4f7ff" stroke-width="4"/><rect x="227.5" y="127.5" width="45" height="45" fill="none" stroke="#f4f7ff" stroke-width="4"/><rect x="44" y="244" width="12" height="12" fill="none" stroke="#f4f7ff" stroke-width="4"/><rect x="38.5" y="238.5" width="23" height="23" fill="none" stroke="#f4f7ff" stroke-width="4"/><rect x="33" y="233" width="34" height="34" fill="none" stroke="#f4f7ff" stroke-width="4"/><rect x="27.5" y="227.5" width="45" height="45" fill="none" stroke="#f4f7ff" stroke-width="4"/><rect x="144" y="244" width="12" height="12" fill="none" stroke="#f4f7ff" stroke-width="4"/><rect x="138.5" y="238.5" width="23" height="23" fill="none" stroke="#f4f7ff" stroke-width="4"/><rect x="133" y="233" width="34" height="34" fill="none" stroke="#f4f7ff" stroke-width="4"/><rect x="127.5" y="227.5" width="45" height="45" fill="none" stroke="#f4f7ff" stroke-width="4"/><rect x="218" y="218" width="64" height="64" rx="6" fill="none" stroke="#7889a3" stroke-width="2" stroke-dasharray="6 5"/></svg>
