<svg viewBox="0 0 300 300" xmlns="http://www.w3.org/2000/svg" role="img"><path d="M100 0V300 M200 0V300 M0 100H300 M0 200H300" stroke="#26324d" stroke-width="2"/><polygon points="50,45.5 54.5,54.5 45.5,54.5" fill="#f4f7ff"/><polygon points="150,44.2 155.8,55.8 144.2,55.8" fill="#f4f7ff"/><polygon points="250,42.9 257.1,57.1 242.9,57.1" fill="#f4f7ff"/><polygon points="50,141.6 58.4,158.4 41.6,158.4" fill="#f4f7ff"/><polygon points="150,140.3 159.7,159.7 140.3,159.7" fill="#f4f7ff"/><polygon points="250,139 261,161 239,161" fill="#f4f7ff"/><polygon points="50,237.7 62.3,262.3 37.7,262.3" fill="#f4f7ff"/><polygon points="150,236.4 163.6,263.6 136.4,263.6" fill="#f4f7ff"/><rect x="218" y="218" width="64" height="64" rx="6" fill="none" stroke="#7889a3" stroke-width="2" stroke-dasharray="6 5"/></svg>
