<svg viewBox="0 0 300 300" xmlns="http://www.w3.org/2000/svg" role="img"><path d="M100 0V300 M200 0V300 M0 100H300 M0 200H300" stroke="#26324d" stroke-width="2"/><circle cx="50" cy="50" r="6" fill="none" stroke="#f4f7ff" stroke-width="4"/><circle cx="150" cy="50" r="6" fill="none" stroke="#f4f7ff" stroke-width="4"/><circle cx="150" cy="50" r="11.5" fill="none" stroke="#f4f7ff" stroke-width="4"/><circle cx="250" cy="50" r="6" fill="none" stroke="#f4f7ff" stroke-width="4"/><circle cx="250" cy="50" r="11.5" fill="none" stroke="#f4f7ff" stroke-width="4"/><circle cx="250" cy="50" r="17" fill="none" stroke="#f4f7ff" stroke-width="4"/><circle cx="50" cy="150" r="6" fill="none" stroke="#f4f7ff" stroke-width="4"/><circle cx="50" cy="150" r="11.5" fill="none" stroke="#f4f7ff" stroke-width="4"/><circle cx="50" cy="150" r="17" fill="none" stroke="#f4f7ff" stroke-width="4"/><circle cx="50" cy="150" r="22.5" fill="none" stroke="#f4f7ff" stroke-width="4"/><circle cx="150" cy="150" r="6" fill="none" stroke="#f4f7ff" stroke-width="4"/><circle cx="150" cy="150" r="11.5" fill="none" stroke="#f4f7ff" stroke-width="4"/><circle cx="150" cy="150" r="17" fill="none" stroke="#f4f7ff" stroke-width="4"/><circle cx="150" cy="150" r="22.5" fill="none" stroke="#f4f7ff" stroke-width="4"/><circle cx="250" cy="150" r="6" fill="none" stroke="#f4f7ff" stroke-width="4"/><circle cx="250" cy="150" r="11.5" fill="none" stroke="#f4f7ff" stroke-width="4"/><circle cx="250" cy="150" r="17" fill="none" stroke="#f4f7ff" stroke-width="4"/><circle cx="250" cy="150" r="22.5" fill="none" stroke="#f4f7ff" stroke-width="4"/><circle cx="50" cy="250" r="6" fill="none" stroke="#f4f7ff" stroke-width="4"/><circle cx="50" cy="250" r="11.5" fill="none" stroke="#f4f7ff" stroke-width="4"/><circle cx="50" cy="250" r="17" fill="none" stroke="#f4f7ff" stroke-width="4"/><circle cx="50" cy="250" r="22.5" fill="none" stroke="#f4f7ff" stroke-width="4"/><circle cx="150" cy="250" r="6" fill="none" stroke="#f4f7ff" stroke-width="4"/><circle cx="150" cy="250" r="11.5" fill="none" stroke="#f4f7ff" stroke-width="4"/><circle cx="150" cy="250" r="17" fill="none" stroke="#f4f7ff" stroke-width="4"/><circle cx="150" cy="250" r="22.5" fill="none" stroke="#f4f7ff" stroke-width="4"/><rect x="218" y="218" width="64" height="64" rx="6" fill="none" stroke="#7889a3" stroke-width="2" stroke-dasharray="6 5"/></svg>
