<svg viewBox="0 0 300 300" xmlns="http://www.w3.org/2000/svg" role="img"><path d="M100 0V300 M200 0V300 M0 100H300 M0 200H300" stroke="#26324d" stroke-width="2"/><polygon points="50,41 59,50 50,59 41,50" fill="#f4f7ff"/><polygon points="150,38.4 161.6,50 150,61.6 138.4,50" fill="#f4f7ff"/><polygon points="250,35.8 264.2,50 250,64.2 235.8,50" fill="#f4f7ff"/><polygon points="50,133.2 66.8,150 50,166.8 33.2,150" fill="#f4f7ff"/><polygon points="150,130.6 169.4,150 150,169.4 130.6,150" fill="#f4f7ff"/><polygon points="250,128 272,150 250,172 228,150" fill="#f4f7ff"/><polygon points="50,225.4 74.6,250 50,274.6 25.4,250" fill="#f4f7ff"/><polygon points="150,222.8 177.2,250 150,277.2 122.8,250" fill="#f4f7ff"/><rect x="218" y="218" width="64" height="64" rx="6" fill="none" stroke="#7889a3" stroke-width="2" stroke-dasharray="6 5"/></svg>
