<svg viewBox="0 0 300 300" xmlns="http://www.w3.org/2000/svg" role="img"><path d="M100 0V300 M200 0V300 M0 100H300 M0 200H300" stroke="#26324d" stroke-width="2"/><rect x="24" y="24" width="52" height="52" fill="#f4f7ff" transform="rotate(0 50 50)"/><rect x="124" y="24" width="52" height="52" fill="#f4f7ff" transform="rotate(40 150 50)"/><rect x="224" y="24" width="52" height="52" fill="#f4f7ff" transform="rotate(80 250 50)"/><rect x="24" y="124" width="52" height="52" fill="#f4f7ff" transform="rotate(120 50 150)"/><rect x="124" y="124" width="52" height="52" fill="#f4f7ff" transform="rotate(160 150 150)"/><rect x="224" y="124" width="52" height="52" fill="#f4f7ff" transform="rotate(200 250 150)"/><rect x="24" y="224" width="52" height="52" fill="#f4f7ff" transform="rotate(240 50 250)"/><rect x="124" y="224" width="52" height="52" fill="#f4f7ff" transform="rotate(280 150 250)"/><rect x="218" y="218" width="64" height="64" rx="6" fill="none" stroke="#7889a3" stroke-width="2" stroke-dasharray="6 5"/></svg>
